<svg width="52" height="52" viewBox="0 0 52 52" fill="none" xmlns="http://www.w3.org/2000/svg">
<circle cx="26" cy="26" r="24" fill="#1E2029"/>
<rect x="20" y="20" width="12" height="9" fill="white"/>
<rect x="22" y="12" width="8" height="3" fill="white"/>
<g filter="url(#filter0_d)">
<path d="M21.25 10.1666V16.5H30.75V10.1666H21.25ZM18.0833 18.0833V30.75H33.9167V18.0833H18.0833ZM21.25 32.3333V40.25H19.6667V41.8333H24.4167V32.3333H21.25ZM27.5833 32.3333V41.8333H32.3333V40.25H30.75V32.3333H27.5833Z" fill="url(#paint0_linear)"/>
</g>
<g filter="url(#filter1_d)">
<path d="M13.3333 22.8333L16.5 19.6666V30.75H13.3333V22.8333Z" fill="#737ADE"/>
<path d="M35.5 30.75V19.6666L38.6667 22.8333V30.75H35.5Z" fill="#737ADE"/>
</g>
<path d="M24.4167 26V22.8333C24.4167 21.9589 23.7078 21.25 22.8333 21.25C21.9589 21.25 21.25 21.9589 21.25 22.8333V26C21.25 26.8745 21.9589 27.5833 22.8333 27.5833C23.7078 27.5833 24.4167 26.8744 24.4167 26Z" fill="white"/>
<path d="M30.75 26V24.4167C30.75 23.5422 30.0411 22.8333 29.1667 22.8333C28.2922 22.8333 27.5833 23.5422 27.5833 24.4167V26C27.5833 26.8745 28.2922 27.5833 29.1667 27.5833C30.0411 27.5833 30.75 26.8745 30.75 26Z" fill="white"/>
<g filter="url(#filter2_d)">
<path d="M24.4167 14.1249C24.4167 13.6858 24.0641 13.3333 23.625 13.3333C23.1859 13.3333 22.8333 13.6858 22.8333 14.1249C22.8333 14.564 23.1859 14.9166 23.625 14.9166C24.0641 14.9166 24.4167 14.564 24.4167 14.1249Z" fill="white"/>
<path d="M29.1667 14.1249C29.1667 13.6858 28.8141 13.3333 28.375 13.3333C27.9359 13.3333 27.5833 13.6858 27.5833 14.1249C27.5833 14.564 27.9359 14.9166 28.375 14.9166C28.8141 14.9166 29.1667 14.564 29.1667 14.1249Z" fill="white"/>
</g>
<defs>
<filter id="filter0_d" x="14.0833" y="7.16663" width="23.8333" height="39.6667" filterUnits="userSpaceOnUse" color-interpolation-filters="sRGB">
<feFlood flood-opacity="0" result="BackgroundImageFix"/>
<feColorMatrix in="SourceAlpha" type="matrix" values="0 0 0 0 0 0 0 0 0 0 0 0 0 0 0 0 0 0 127 0"/>
<feOffset dy="1"/>
<feGaussianBlur stdDeviation="2"/>
<feColorMatrix type="matrix" values="0 0 0 0 0 0 0 0 0 0 0 0 0 0 0 0 0 0 0.15 0"/>
<feBlend mode="normal" in2="BackgroundImageFix" result="effect1_dropShadow"/>
<feBlend mode="normal" in="SourceGraphic" in2="effect1_dropShadow" result="shape"/>
</filter>
<filter id="filter1_d" x="9.33333" y="16.6666" width="33.3333" height="19.0833" filterUnits="userSpaceOnUse" color-interpolation-filters="sRGB">
<feFlood flood-opacity="0" result="BackgroundImageFix"/>
<feColorMatrix in="SourceAlpha" type="matrix" values="0 0 0 0 0 0 0 0 0 0 0 0 0 0 0 0 0 0 127 0"/>
<feOffset dy="1"/>
<feGaussianBlur stdDeviation="2"/>
<feColorMatrix type="matrix" values="0 0 0 0 0 0 0 0 0 0 0 0 0 0 0 0 0 0 0.15 0"/>
<feBlend mode="normal" in2="BackgroundImageFix" result="effect1_dropShadow"/>
<feBlend mode="normal" in="SourceGraphic" in2="effect1_dropShadow" result="shape"/>
</filter>
<filter id="filter2_d" x="18.8333" y="10.3333" width="14.3333" height="9.58333" filterUnits="userSpaceOnUse" color-interpolation-filters="sRGB">
<feFlood flood-opacity="0" result="BackgroundImageFix"/>
<feColorMatrix in="SourceAlpha" type="matrix" values="0 0 0 0 0 0 0 0 0 0 0 0 0 0 0 0 0 0 127 0"/>
<feOffset dy="1"/>
<feGaussianBlur stdDeviation="2"/>
<feColorMatrix type="matrix" values="0 0 0 0 0 0 0 0 0 0 0 0 0 0 0 0 0 0 0.15 0"/>
<feBlend mode="normal" in2="BackgroundImageFix" result="effect1_dropShadow"/>
<feBlend mode="normal" in="SourceGraphic" in2="effect1_dropShadow" result="shape"/>
</filter>
<linearGradient id="paint0_linear" x1="16.7177" y1="20.0625" x2="40.7466" y2="30.132" gradientUnits="userSpaceOnUse">
<stop stop-color="#4C54D2"/>
<stop offset="1" stop-color="#A3278F"/>
</linearGradient>
</defs>
</svg>