<svg width="24" height="24" viewBox="0 0 24 24" fill="none" xmlns="http://www.w3.org/2000/svg">
<path fill-rule="evenodd" clip-rule="evenodd" d="M22.841 7.757L22.0868 5.749L22.6108 4.5955C22.6781 4.447 22.6457 4.27275 22.5292 4.1575L21.1036 2.74325C20.4802 2.12525 19.5501 1.91275 18.7122 2.19775L18.3137 2.33325L16.2316 0H13.1686H11.2274H8.57566L6.52019 2.3615L6.13263 2.22775C5.28714 1.936 4.34578 2.15075 3.71829 2.7785L2.26749 4.21925C2.17443 4.3115 2.14893 4.45 2.20299 4.56825L2.75041 5.7655L2.00003 7.7725L2.48575 9.582L4.6979 17.8298C4.95261 18.7808 5.53956 19.6135 6.35599 20.1838C6.35599 20.1838 9.04187 22.0413 11.6923 23.7283C11.9254 23.8768 12.1691 23.9853 12.4307 23.9813C12.6923 23.9848 12.9361 23.8768 13.1686 23.7275C16.1454 21.8143 18.5006 20.1763 18.5006 20.1763C19.3163 19.605 19.9022 18.7712 20.1559 17.82L22.3576 9.569L22.841 7.757Z" fill="url(#paint0_linear)"/>
<path fill-rule="evenodd" clip-rule="evenodd" d="M20.4873 8.15512L20.4528 8.26264L20.3979 8.45542C20.2513 8.63445 19.9424 8.978 19.711 9.21929L17.5844 11.4356C17.353 11.6767 17.2225 11.979 17.3545 12.2836L17.6413 12.9766C17.7731 13.2809 17.7861 13.7845 17.6597 14.1226C17.5313 14.4666 17.3101 14.7707 17.0203 15.0025L16.7984 15.1798C16.5367 15.389 16.0729 15.444 15.7678 15.3018L14.7882 14.8462C14.4833 14.7044 14.0283 14.4071 13.777 14.1856L12.8503 13.369C12.6696 13.2094 12.6593 12.9354 12.8276 12.7639L15.0845 11.2711C15.3643 11.0861 15.5125 10.7438 15.3534 10.452L14.551 9.02076C14.3919 8.72871 14.3283 8.3409 14.4095 8.15862C14.491 7.97634 14.8158 7.7313 15.132 7.61403L17.7517 6.65988C18.0676 6.54261 18.0507 6.42159 17.7144 6.39059L16.0405 6.26857C15.7039 6.23756 15.4573 6.28557 15.132 6.37458L13.865 6.68188C13.5396 6.7709 13.4709 7.1102 13.5319 7.43525L14.0546 10.2137C14.1159 10.539 14.1458 10.8666 14.1213 10.9418C14.0967 11.0171 13.8072 11.1384 13.4778 11.2116L13.0444 11.3079C12.715 11.3811 12.1752 11.3844 11.845 11.3156L11.3208 11.2061C10.9903 11.1371 10.7 11.0191 10.6752 10.9441C10.6507 10.8688 10.6803 10.5408 10.7414 10.2157L11.2608 7.43675C11.3218 7.11145 11.2525 6.77265 10.9272 6.68388L9.65967 6.37808C9.33434 6.28932 9.08747 6.24231 8.75117 6.27332L7.0772 6.39684C6.7409 6.42809 6.7243 6.54911 7.04017 6.66588L9.66146 7.61728C9.97733 7.7343 10.3027 7.97884 10.3841 8.16112C10.4658 8.34315 10.4025 8.73096 10.2439 9.02301L9.44307 10.4547C9.2845 10.7468 9.43291 11.0891 9.71304 11.2739L11.9719 12.7644C12.1405 12.9356 12.1305 13.2099 11.95 13.3695L11.024 14.1873C10.7733 14.4091 10.3185 14.7067 10.0136 14.8492L9.03481 15.306C8.72992 15.4483 8.26593 15.394 8.00419 15.1853L7.78229 15.0082C7.49195 14.7767 7.2703 14.4729 7.13113 14.1016C7.01469 13.7908 7.02695 13.2877 7.1582 12.9829L7.44451 12.2898C7.57601 11.985 7.44496 11.6827 7.21336 11.4419L5.0842 9.22804C4.85284 8.98725 4.54335 8.64395 4.39678 8.46542L4.34137 8.27239L4.30689 8.16487C4.30357 8.0411 4.34877 7.64654 4.4001 7.53977C4.45142 7.4335 4.64805 7.12195 4.83727 6.84791L5.29282 6.18755C5.48204 5.91351 5.80915 5.47769 6.01957 5.2189L6.68732 4.39876C6.89774 4.14022 7.07725 3.92969 7.10432 3.93144C7.1056 3.92969 7.37806 3.97945 7.70977 4.04171L8.72123 4.23199C9.05294 4.29425 9.41887 4.36276 9.53454 4.38401C9.64996 4.40552 10.0075 4.33951 10.329 4.23749L11.0565 4.0067C11.3777 3.90444 11.8654 3.76991 12.1399 3.7074L12.3943 3.71115L12.6486 3.70715C12.9231 3.76916 13.4109 3.90318 13.7323 4.00495L14.4604 4.23499C14.7819 4.33675 15.1394 4.40227 15.2548 4.38076C15.3541 4.3623 15.6376 4.30865 15.9257 4.25413L16.0678 4.22724L17.079 4.03621C17.4107 3.97345 17.6832 3.92344 17.7026 3.92494C17.7116 3.92344 17.8911 4.13322 18.102 4.39201L18.7708 5.2114C18.9817 5.46969 19.3091 5.90501 19.4988 6.17905L19.9551 6.83866C20.1446 7.11245 20.4405 7.61078 20.4589 7.72405C20.4778 7.83732 20.4903 8.03135 20.4873 8.15512ZM12.5322 14.769C12.5618 14.769 12.8417 14.8723 13.1537 14.9991L13.4433 15.1166C13.7553 15.2431 14.2574 15.4692 14.5584 15.6189L15.4128 16.044C15.7139 16.1935 15.7356 16.4736 15.4608 16.6661L14.7321 17.1767C14.4573 17.3692 14.0252 17.7033 13.7722 17.9198L12.8532 18.7054C12.6009 18.9212 12.192 18.9222 11.9446 18.7082C11.6969 18.4939 11.2871 18.1431 11.0335 17.9288C10.7802 17.7143 10.3471 17.3827 10.071 17.1922L9.34481 16.6896C9.06877 16.4986 9.08844 16.2173 9.38797 16.0645L10.247 15.6264C10.5465 15.4734 11.0468 15.2444 11.3588 15.1178L11.6484 14.9998C11.9602 14.8731 12.2398 14.769 12.2697 14.769H12.4009H12.5322Z" fill="url(#paint1_linear)"/>
<defs>
<linearGradient id="paint0_linear" x1="2.00003" y1="24.1505" x2="22.841" y2="24.1505" gradientUnits="userSpaceOnUse">
<stop stop-color="#FF5500"/>
<stop offset="0.409877" stop-color="#FF5500"/>
<stop offset="0.49434" stop-color="#FF4530"/>
<stop offset="0.572365" stop-color="#FF2000"/>
<stop offset="1" stop-color="#FF2000"/>
</linearGradient>
<linearGradient id="paint1_linear" x1="12.3972" y1="22.4131" x2="19.9647" y2="22.4131" gradientUnits="userSpaceOnUse">
<stop stop-color="white"/>
<stop offset="1" stop-color="#F4F4F4"/>
</linearGradient>
</defs>
</svg>