<svg width="52" height="52" viewBox="0 0 52 52" fill="none" xmlns="http://www.w3.org/2000/svg">
<circle cx="26" cy="26" r="24" fill="#1E2029"/>
<g filter="url(#filter0_d)">
<path d="M14.1627 13.0001C13.8499 13.005 13.5518 13.1338 13.3338 13.3583C13.1158 13.5828 12.9958 13.8845 13.0001 14.1974V36.6377C13.0001 37.9287 14.0712 38.9999 15.3622 38.9999H37.8021C37.9586 39.0021 38.114 38.9732 38.2592 38.9148C38.4045 38.8565 38.5367 38.7698 38.6481 38.6599C38.7596 38.55 38.8481 38.4191 38.9085 38.2747C38.9689 38.1303 39 37.9753 39 37.8188C39 37.6623 38.9689 37.5073 38.9085 37.3629C38.8481 37.2185 38.7596 37.0876 38.6481 36.9777C38.5367 36.8678 38.4045 36.7812 38.2592 36.7228C38.114 36.6644 37.9586 36.6355 37.8021 36.6377H15.3622V14.1974C15.3644 14.0393 15.3348 13.8825 15.2753 13.7361C15.2157 13.5897 15.1274 13.4568 15.0156 13.3452C14.9037 13.2335 14.7706 13.1455 14.6241 13.0862C14.4776 13.0269 14.3207 12.9977 14.1627 13.0001ZM37.7791 18.9101C37.4722 18.9193 37.181 19.0475 36.9671 19.2677L31.8969 24.338L26.8267 19.2677C26.6052 19.0463 26.3048 18.9219 25.9916 18.9219C25.6785 18.9219 25.3781 19.0463 25.1566 19.2677L16.8893 27.5352C16.7759 27.644 16.6854 27.7744 16.6231 27.9186C16.5607 28.0628 16.5278 28.2181 16.5262 28.3752C16.5246 28.5323 16.5544 28.6882 16.6138 28.8337C16.6732 28.9792 16.761 29.1113 16.8721 29.2225C16.9832 29.3336 17.1154 29.4214 17.2609 29.4808C17.4063 29.5402 17.5622 29.57 17.7193 29.5684C17.8765 29.5668 18.0317 29.5338 18.1759 29.4715C18.3202 29.4091 18.4505 29.3186 18.5593 29.2053L25.9916 21.7728L31.0618 26.8431C31.2833 27.0646 31.5837 27.1889 31.8969 27.1889C32.2101 27.1889 32.5104 27.0646 32.7319 26.8431L38.6372 20.9378C38.8078 20.7719 38.9244 20.5583 38.9716 20.325C39.0188 20.0917 38.9944 19.8496 38.9016 19.6304C38.8089 19.4112 38.6521 19.2252 38.4518 19.0967C38.2514 18.9681 38.017 18.9031 37.7791 18.9101Z" fill="url(#paint0_linear)"/>
</g>
<path d="M19.181 13.0162C18.8678 13.0162 18.5674 13.1407 18.3459 13.3622C18.1244 13.5837 18 13.8841 18 14.1973C18 14.5105 18.1244 14.811 18.3459 15.0325C18.5674 15.2539 18.8678 15.3784 19.181 15.3784C19.4943 15.3784 19.7947 15.2539 20.0162 15.0325C20.2377 14.811 20.3621 14.5105 20.3621 14.1973C20.3621 13.8841 20.2377 13.5837 20.0162 13.3622C19.7947 13.1407 19.4943 13.0162 19.181 13.0162ZM25.0863 13.0162C24.7731 13.0162 24.4727 13.1407 24.2512 13.3622C24.0297 13.5837 23.9052 13.8841 23.9052 14.1973C23.9052 14.5105 24.0297 14.811 24.2512 15.0325C24.4727 15.2539 24.7731 15.3784 25.0863 15.3784C25.3995 15.3784 25.6999 15.2539 25.9214 15.0325C26.1429 14.811 26.2673 14.5105 26.2673 14.1973C26.2673 13.8841 26.1429 13.5837 25.9214 13.3622C25.6999 13.1407 25.3995 13.0162 25.0863 13.0162ZM30.9915 13.0162C30.6783 13.0162 30.3779 13.1407 30.1564 13.3622C29.9349 13.5837 29.8105 13.8841 29.8105 14.1973C29.8105 14.5105 29.9349 14.811 30.1564 15.0325C30.3779 15.2539 30.6783 15.3784 30.9915 15.3784C31.3048 15.3784 31.6052 15.2539 31.8267 15.0325C32.0482 14.811 32.1726 14.5105 32.1726 14.1973C32.1726 13.8841 32.0482 13.5837 31.8267 13.3622C31.6052 13.1407 31.3048 13.0162 30.9915 13.0162ZM36.8968 13.0162C36.5835 13.0162 36.2831 13.1407 36.0616 13.3622C35.8402 13.5837 35.7157 13.8841 35.7157 14.1973C35.7157 14.5105 35.8402 14.811 36.0616 15.0325C36.2831 15.2539 36.5835 15.3784 36.8968 15.3784C37.21 15.3784 37.5104 15.2539 37.7319 15.0325C37.9534 14.811 38.0778 14.5105 38.0778 14.1973C38.0778 13.8841 37.9534 13.5837 37.7319 13.3622C37.5104 13.1407 37.21 13.0162 36.8968 13.0162ZM19.181 18.9216C18.8678 18.9216 18.5674 19.046 18.3459 19.2675C18.1244 19.489 18 19.7894 18 20.1027C18 20.4159 18.1244 20.7163 18.3459 20.9378C18.5674 21.1593 18.8678 21.2837 19.181 21.2837C19.4943 21.2837 19.7947 21.1593 20.0162 20.9378C20.2377 20.7163 20.3621 20.4159 20.3621 20.1027C20.3621 19.7894 20.2377 19.489 20.0162 19.2675C19.7947 19.046 19.4943 18.9216 19.181 18.9216ZM30.9915 18.9216C30.6783 18.9216 30.3779 19.046 30.1564 19.2675C29.9349 19.489 29.8105 19.7894 29.8105 20.1027C29.8105 20.4159 29.9349 20.7163 30.1564 20.9378C30.3779 21.1593 30.6783 21.2837 30.9915 21.2837C31.3048 21.2837 31.6052 21.1593 31.8267 20.9378C32.0482 20.7163 32.1726 20.4159 32.1726 20.1027C32.1726 19.7894 32.0482 19.489 31.8267 19.2675C31.6052 19.046 31.3048 18.9216 30.9915 18.9216ZM25.0863 24.827C24.7731 24.827 24.4727 24.9514 24.2512 25.1729C24.0297 25.3944 23.9052 25.6948 23.9052 26.008C23.9052 26.3213 24.0297 26.6217 24.2512 26.8432C24.4727 27.0647 24.7731 27.1891 25.0863 27.1891C25.3995 27.1891 25.6999 27.0647 25.9214 26.8432C26.1429 26.6217 26.2673 26.3213 26.2673 26.008C26.2673 25.6948 26.1429 25.3944 25.9214 25.1729C25.6999 24.9514 25.3995 24.827 25.0863 24.827ZM36.8968 24.827C36.5835 24.827 36.2831 24.9514 36.0616 25.1729C35.8402 25.3944 35.7157 25.6948 35.7157 26.008C35.7157 26.3213 35.8402 26.6217 36.0616 26.8432C36.2831 27.0647 36.5835 27.1891 36.8968 27.1891C37.21 27.1891 37.5104 27.0647 37.7319 26.8432C37.9534 26.6217 38.0778 26.3213 38.0778 26.008C38.0778 25.6948 37.9534 25.3944 37.7319 25.1729C37.5104 24.9514 37.21 24.827 36.8968 24.827ZM19.181 30.7323C18.8678 30.7323 18.5674 30.8568 18.3459 31.0782C18.1244 31.2997 18 31.6002 18 31.9134C18 32.2266 18.1244 32.527 18.3459 32.7485C18.5674 32.97 18.8678 33.0945 19.181 33.0945C19.4943 33.0945 19.7947 32.97 20.0162 32.7485C20.2377 32.527 20.3621 32.2266 20.3621 31.9134C20.3621 31.6002 20.2377 31.2997 20.0162 31.0782C19.7947 30.8568 19.4943 30.7323 19.181 30.7323ZM25.0863 30.7323C24.7731 30.7323 24.4727 30.8568 24.2512 31.0782C24.0297 31.2997 23.9052 31.6002 23.9052 31.9134C23.9052 32.2266 24.0297 32.527 24.2512 32.7485C24.4727 32.97 24.7731 33.0945 25.0863 33.0945C25.3995 33.0945 25.6999 32.97 25.9214 32.7485C26.1429 32.527 26.2673 32.2266 26.2673 31.9134C26.2673 31.6002 26.1429 31.2997 25.9214 31.0782C25.6999 30.8568 25.3995 30.7323 25.0863 30.7323ZM30.9915 30.7323C30.6783 30.7323 30.3779 30.8568 30.1564 31.0782C29.9349 31.2997 29.8105 31.6002 29.8105 31.9134C29.8105 32.2266 29.9349 32.527 30.1564 32.7485C30.3779 32.97 30.6783 33.0945 30.9915 33.0945C31.3048 33.0945 31.6052 32.97 31.8267 32.7485C32.0482 32.527 32.1726 32.2266 32.1726 31.9134C32.1726 31.6002 32.0482 31.2997 31.8267 31.0782C31.6052 30.8568 31.3048 30.7323 30.9915 30.7323ZM36.8968 30.7323C36.5835 30.7323 36.2831 30.8568 36.0616 31.0782C35.8402 31.2997 35.7157 31.6002 35.7157 31.9134C35.7157 32.2266 35.8402 32.527 36.0616 32.7485C36.2831 32.97 36.5835 33.0945 36.8968 33.0945C37.21 33.0945 37.5104 32.97 37.7319 32.7485C37.9534 32.527 38.0778 32.2266 38.0778 31.9134C38.0778 31.6002 37.9534 31.2997 37.7319 31.0782C37.5104 30.8568 37.21 30.7323 36.8968 30.7323Z" fill="#737ADE"/>
<defs>
<filter id="filter0_d" x="9" y="10" width="34" height="34" filterUnits="userSpaceOnUse" color-interpolation-filters="sRGB">
<feFlood flood-opacity="0" result="BackgroundImageFix"/>
<feColorMatrix in="SourceAlpha" type="matrix" values="0 0 0 0 0 0 0 0 0 0 0 0 0 0 0 0 0 0 127 0"/>
<feOffset dy="1"/>
<feGaussianBlur stdDeviation="2"/>
<feColorMatrix type="matrix" values="0 0 0 0 0 0 0 0 0 0 0 0 0 0 0 0 0 0 0.15 0"/>
<feBlend mode="normal" in2="BackgroundImageFix" result="effect1_dropShadow"/>
<feBlend mode="normal" in="SourceGraphic" in2="effect1_dropShadow" result="shape"/>
</filter>
<linearGradient id="paint0_linear" x1="10.7575" y1="21.125" x2="38.005" y2="43.9616" gradientUnits="userSpaceOnUse">
<stop stop-color="#4C54D2"/>
<stop offset="1" stop-color="#A3278F"/>
</linearGradient>
</defs>
</svg>