<svg width="52" height="52" viewBox="0 0 52 52" fill="none" xmlns="http://www.w3.org/2000/svg">
<circle cx="26" cy="26" r="24" fill="#1E2029"/>
<g filter="url(#filter0_d)">
<path d="M26 13C18.3071 13 12.0714 18.3354 12.0714 24.9167C12.0714 27.8158 13.2845 30.4699 15.2962 32.536C15.3368 32.6381 16.3689 35.3239 13.3124 38.0627C13.2588 38.1134 13.2161 38.1746 13.187 38.2427C13.1578 38.3108 13.1428 38.3842 13.1429 38.4583C13.1429 38.602 13.1993 38.7398 13.2998 38.8413C13.4002 38.9429 13.5365 39 13.6786 39C13.7173 39 13.7559 38.9957 13.7937 38.9873C16.8749 38.8027 19.5108 37.2566 21.12 36.0653C22.6408 36.5529 24.2802 36.8333 26 36.8333C33.6929 36.8333 39.9286 31.4979 39.9286 24.9167C39.9286 18.3354 33.6929 13 26 13Z" fill="url(#paint0_linear)"/>
</g>
<path d="M26.572 31.654V29.026H24.196V31.654H26.572ZM26.248 26.2C28.57 25.354 29.866 24.328 29.866 22.312C29.866 20.242 28.372 19 26.014 19C24.376 19 23.08 19.522 22 20.296L22.306 22.384C23.332 21.592 24.502 21.016 25.78 21.016C26.86 21.016 27.58 21.556 27.58 22.474C27.58 23.482 26.896 24.04 25.168 24.652L24.61 24.868L24.826 27.73L26.14 27.442L26.248 26.2Z" fill="white"/>
<defs>
<filter id="filter0_d" x="8.07143" y="10" width="35.8571" height="34" filterUnits="userSpaceOnUse" color-interpolation-filters="sRGB">
<feFlood flood-opacity="0" result="BackgroundImageFix"/>
<feColorMatrix in="SourceAlpha" type="matrix" values="0 0 0 0 0 0 0 0 0 0 0 0 0 0 0 0 0 0 127 0"/>
<feOffset dy="1"/>
<feGaussianBlur stdDeviation="2"/>
<feColorMatrix type="matrix" values="0 0 0 0 0 0 0 0 0 0 0 0 0 0 0 0 0 0 0.15 0"/>
<feBlend mode="normal" in2="BackgroundImageFix" result="effect1_dropShadow"/>
<feBlend mode="normal" in="SourceGraphic" in2="effect1_dropShadow" result="shape"/>
</filter>
<linearGradient id="paint0_linear" x1="9.66875" y1="21.125" x2="37.1828" y2="45.8322" gradientUnits="userSpaceOnUse">
<stop stop-color="#4C54D2"/>
<stop offset="1" stop-color="#A3278F"/>
</linearGradient>
</defs>
</svg>