<svg width="20" height="20" viewBox="0 0 20 20" fill="none" xmlns="http://www.w3.org/2000/svg">
<path fill-rule="evenodd" clip-rule="evenodd" d="M16.875 20H3.12499C2.32082 20 1.66666 19.3517 1.66666 18.5558V1.44417C1.66666 0.648333 2.32082 0 3.12499 0H16.875C17.6792 0 18.3333 0.648333 18.3333 1.44417V18.5558C18.3333 19.3517 17.6792 20 16.875 20ZM16.6667 1.66667H3.33332V18.3333H16.6667V1.66667ZM4.99999 10H15C15.46 10 15.8333 10.3733 15.8333 10.8333C15.8333 11.2933 15.46 11.6667 15 11.6667H4.99999C4.53999 11.6667 4.16666 11.2933 4.16666 10.8333C4.16666 10.3733 4.53999 10 4.99999 10ZM4.99999 12.5H15C15.46 12.5 15.8333 12.8733 15.8333 13.3333C15.8333 13.7933 15.46 14.1667 15 14.1667H4.99999C4.53999 14.1667 4.16666 13.7933 4.16666 13.3333C4.16666 12.8733 4.53999 12.5 4.99999 12.5ZM4.99999 15H10.8333C11.2933 15 11.6667 15.3733 11.6667 15.8333C11.6667 16.2933 11.2933 16.6667 10.8333 16.6667H4.99999C4.53999 16.6667 4.16666 16.2933 4.16666 15.8333C4.16666 15.3733 4.53999 15 4.99999 15ZM15 8.33333H11.6667C11.2067 8.33333 10.8333 7.96 10.8333 7.5C10.8333 7.04 11.2067 6.66667 11.6667 6.66667H15C15.46 6.66667 15.8333 7.04 15.8333 7.5C15.8333 7.96 15.46 8.33333 15 8.33333ZM15 5.83333H11.6667C11.2067 5.83333 10.8333 5.46 10.8333 5C10.8333 4.54 11.2067 4.16667 11.6667 4.16667H15C15.46 4.16667 15.8333 4.54 15.8333 5C15.8333 5.46 15.46 5.83333 15 5.83333ZM9.16666 8.33333H5.83332C5.37332 8.33333 4.99999 7.96 4.99999 7.5V4.16667C4.99999 3.70667 5.37332 3.33333 5.83332 3.33333H9.16666C9.62666 3.33333 9.99999 3.70667 9.99999 4.16667V7.5C9.99999 7.96 9.62666 8.33333 9.16666 8.33333ZM8.33332 5H6.66666V6.66667H8.33332V5Z" fill="#4C54D2"/>
</svg>