<svg width="48" height="48" viewBox="0 0 48 48" fill="none" xmlns="http://www.w3.org/2000/svg">
<circle cx="24" cy="24" r="24" fill="#1E2029"/>
<path fill-rule="evenodd" clip-rule="evenodd" d="M9.04874 36.3439L17.5389 31.3563L23.3921 21.0984V11.2082C23.2377 11.2082 23.0833 11.3112 22.9662 11.5159L16.0329 23.6668L9.1002 35.8176C8.98335 36.0227 8.97226 36.2086 9.04874 36.3439Z" fill="#FF4724"/>
<path fill-rule="evenodd" clip-rule="evenodd" d="M23.3922 11.2082V21.0984L29.245 31.3563L37.7352 36.3439C37.812 36.2086 37.8009 36.0227 37.684 35.8176L30.751 23.6668L23.8178 11.5159C23.7006 11.3109 23.5462 11.2082 23.3922 11.2082Z" fill="#9E1F63"/>
<path fill-rule="evenodd" clip-rule="evenodd" d="M37.7353 36.3439L29.2451 31.3563H17.5391L9.04889 36.3439C9.12537 36.4797 9.28999 36.5639 9.52426 36.5639H37.2596C37.4939 36.5639 37.6585 36.4797 37.7353 36.3439Z" fill="#662D91"/>
<path fill-rule="evenodd" clip-rule="evenodd" d="M17.539 31.3563H29.2451L23.3922 21.0984L17.539 31.3563Z" fill="white"/>
</svg>