<svg width="48" height="48" viewBox="0 0 48 48" fill="none" xmlns="http://www.w3.org/2000/svg">
<circle cx="24" cy="24" r="24" fill="#1E2029"/>
<path fill-rule="evenodd" clip-rule="evenodd" d="M37.5513 18.6962L36.6085 16.1863L37.2635 14.7444C37.3476 14.5588 37.3072 14.3409 37.1615 14.1969L35.3796 12.4291C34.6003 11.6566 33.4376 11.3909 32.3903 11.7472L31.8922 11.9166L29.2895 9H25.4608H23.0343H19.7196L17.1503 11.9519L16.6658 11.7847C15.609 11.42 14.4323 11.6884 13.6479 12.4731L11.8344 14.2741C11.7181 14.3894 11.6862 14.5625 11.7538 14.7103L12.438 16.2069L11.5001 18.7156L12.1072 20.9775L14.8724 31.2872C15.1908 32.4759 15.9245 33.5169 16.945 34.2297C16.945 34.2297 20.3024 36.5516 23.6154 38.6603C23.9067 38.8459 24.2114 38.9816 24.5384 38.9766C24.8654 38.9809 25.1701 38.8459 25.4608 38.6594C29.1818 36.2678 32.1258 34.2203 32.1258 34.2203C33.1454 33.5063 33.8778 32.4641 34.1949 31.275L36.947 20.9613L37.5513 18.6962Z" fill="url(#paint0_linear)"/>
<path fill-rule="evenodd" clip-rule="evenodd" d="M34.6091 19.1939L34.566 19.3283L34.4974 19.5693C34.3142 19.7931 33.928 20.2225 33.6388 20.5242L30.9805 23.2946C30.6913 23.5959 30.5281 23.9738 30.6932 24.3545L31.0517 25.2209C31.2164 25.6012 31.2327 26.2307 31.0747 26.6533C30.9141 27.0833 30.6377 27.4634 30.2754 27.7531L29.998 27.9747C29.6709 28.2363 29.0912 28.3051 28.7098 28.1273L27.4853 27.5578C27.1042 27.3806 26.5354 27.009 26.2213 26.732L25.063 25.7112C24.837 25.5118 24.8242 25.1693 25.0345 24.9549L27.8556 23.0889C28.2054 22.8577 28.3906 22.4298 28.1918 22.065L27.1888 20.276C26.9899 19.9109 26.9105 19.4262 27.012 19.1983C27.1138 18.9705 27.5198 18.6642 27.915 18.5176L31.1896 17.3249C31.5845 17.1783 31.5634 17.027 31.143 16.9883L29.0506 16.8358C28.6299 16.797 28.3216 16.857 27.915 16.9683L26.3312 17.3524C25.9246 17.4637 25.8386 17.8878 25.9149 18.2941L26.5683 21.7672C26.6449 22.1738 26.6822 22.5832 26.6516 22.6773C26.6209 22.7714 26.259 22.923 25.8472 23.0146L25.3055 23.1349C24.8938 23.2265 24.219 23.2305 23.8063 23.1446L23.151 23.0077C22.7379 22.9214 22.375 22.7739 22.344 22.6801C22.3134 22.5861 22.3504 22.176 22.4267 21.7697L23.076 18.296C23.1522 17.8894 23.0656 17.4659 22.659 17.3549L21.0746 16.9727C20.668 16.8617 20.3594 16.8029 19.939 16.8417L17.8465 16.9961C17.4261 17.0352 17.4054 17.1864 17.8002 17.3324L21.0768 18.5217C21.4717 18.6679 21.8783 18.9736 21.9802 19.2014C22.0823 19.429 22.0031 19.9137 21.8049 20.2788L20.8039 22.0685C20.6056 22.4335 20.7912 22.8614 21.1413 23.0924L23.9649 24.9555C24.1756 25.1696 24.1631 25.5125 23.9375 25.7119L22.7801 26.7342C22.4666 27.0115 21.8981 27.3834 21.517 27.5615L20.2935 28.1326C19.9124 28.3104 19.3324 28.2426 19.0053 27.9816L18.7279 27.7603C18.365 27.4709 18.0879 27.0912 17.9139 26.627C17.7684 26.2385 17.7837 25.6097 17.9478 25.2287L18.3057 24.3623C18.47 23.9813 18.3062 23.6034 18.0167 23.3024L15.3553 20.5351C15.0661 20.2341 14.6792 19.805 14.496 19.5818L14.4267 19.3405L14.3836 19.2061C14.3795 19.0514 14.436 18.5582 14.5001 18.4248C14.5643 18.2919 14.8101 17.9025 15.0466 17.5599L15.6161 16.7345C15.8526 16.3919 16.2615 15.8472 16.5245 15.5237L17.3592 14.4985C17.6222 14.1753 17.8466 13.9122 17.8804 13.9143C17.882 13.9122 18.2226 13.9744 18.6372 14.0522L19.9016 14.29C20.3162 14.3679 20.7736 14.4535 20.9182 14.4801C21.0625 14.5069 21.5094 14.4244 21.9112 14.2969L22.8206 14.0084C23.2222 13.8806 23.8318 13.7124 24.1749 13.6343L24.4929 13.639L24.8108 13.634C25.1539 13.7115 25.7636 13.879 26.1655 14.0062L27.0755 14.2938C27.4773 14.421 27.9242 14.5029 28.0685 14.476C28.1926 14.4529 28.5471 14.3859 28.9072 14.3177L29.0848 14.2841L30.3488 14.0453C30.7635 13.9669 31.104 13.9043 31.1283 13.9062C31.1395 13.9043 31.3639 14.1666 31.6275 14.4901L32.4635 15.5143C32.7271 15.8372 33.1364 16.3813 33.3735 16.7239L33.9439 17.5484C34.1808 17.8906 34.5507 18.5135 34.5737 18.6551C34.5973 18.7967 34.6129 19.0392 34.6091 19.1939ZM24.6652 27.4613C24.7023 27.4613 25.0521 27.5904 25.4422 27.7489L25.8041 27.8958C26.1942 28.0539 26.8217 28.3365 27.198 28.5237L28.2661 29.055C28.6424 29.2419 28.6695 29.592 28.3261 29.8327L27.4151 30.4709C27.0716 30.7116 26.5316 31.1291 26.2152 31.3998C26.1264 31.4757 26.0218 31.5651 25.9104 31.6604C25.6245 31.9047 25.2934 32.1878 25.0665 32.3818C24.7511 32.6516 24.2401 32.6528 23.9308 32.3853C23.6211 32.1174 23.1088 31.6789 22.7919 31.411C22.4752 31.1429 21.9339 30.7284 21.5888 30.4903L20.681 29.862C20.336 29.6233 20.3606 29.2716 20.735 29.0807L21.8088 28.5331C22.1832 28.3418 22.8085 28.0555 23.1985 27.8973L23.5605 27.7498C23.9502 27.5914 24.2998 27.4613 24.3371 27.4613H24.5012H24.6652Z" fill="url(#paint1_linear)"/>
<defs>
<linearGradient id="paint0_linear" x1="11.5001" y1="39.1882" x2="37.5513" y2="39.1882" gradientUnits="userSpaceOnUse">
<stop stop-color="#FF5500"/>
<stop offset="0.409877" stop-color="#FF5500"/>
<stop offset="0.49434" stop-color="#FF4530"/>
<stop offset="0.572365" stop-color="#FF2000"/>
<stop offset="1" stop-color="#FF2000"/>
</linearGradient>
<linearGradient id="paint1_linear" x1="24.4966" y1="37.0165" x2="33.9559" y2="37.0165" gradientUnits="userSpaceOnUse">
<stop stop-color="white"/>
<stop offset="1" stop-color="#F4F4F4"/>
</linearGradient>
</defs>
</svg>