<svg width="52" height="52" viewBox="0 0 52 52" fill="none" xmlns="http://www.w3.org/2000/svg">
<circle cx="26" cy="26" r="24" fill="#1E2029"/>
<g filter="url(#filter0_d)">
<circle cx="26" cy="26" r="17" fill="url(#paint0_linear)"/>
<path d="M25.985 12.579C25.7314 12.583 25.4896 12.6874 25.3129 12.8694C25.1362 13.0515 25.0389 13.2961 25.0423 13.5498V14.5561C19.4708 15.0195 15.0199 19.4705 14.5566 25.0421H13.5503C13.4234 25.0403 13.2974 25.0637 13.1796 25.111C13.0618 25.1584 12.9547 25.2286 12.8643 25.3177C12.7739 25.4068 12.7021 25.513 12.6532 25.6301C12.6042 25.7472 12.5789 25.8728 12.5789 25.9998C12.5789 26.1267 12.6042 26.2523 12.6532 26.3694C12.7021 26.4865 12.7739 26.5927 12.8643 26.6818C12.9547 26.7709 13.0618 26.8411 13.1796 26.8885C13.2974 26.9358 13.4234 26.9592 13.5503 26.9574H14.5566C15.0199 32.529 19.4708 36.9801 25.0423 37.4434V38.4497C25.0405 38.5766 25.064 38.7026 25.1113 38.8204C25.1586 38.9381 25.2289 39.0453 25.318 39.1357C25.4071 39.2261 25.5133 39.2978 25.6304 39.3468C25.7474 39.3958 25.8731 39.421 26 39.421C26.1269 39.421 26.2526 39.3958 26.3697 39.3468C26.4867 39.2978 26.5929 39.2261 26.682 39.1357C26.7711 39.0453 26.8414 38.9381 26.8887 38.8204C26.936 38.7026 26.9595 38.5766 26.9577 38.4497V37.4434C32.5292 36.9801 36.9801 32.529 37.4434 26.9574H38.4497C38.5766 26.9592 38.7026 26.9358 38.8204 26.8885C38.9382 26.8411 39.0454 26.7709 39.1357 26.6818C39.2261 26.5927 39.2979 26.4865 39.3468 26.3694C39.3958 26.2523 39.4211 26.1267 39.4211 25.9998C39.4211 25.8728 39.3958 25.7472 39.3468 25.6301C39.2979 25.513 39.2261 25.4068 39.1357 25.3177C39.0454 25.2286 38.9382 25.1584 38.8204 25.111C38.7026 25.0637 38.5766 25.0403 38.4497 25.0421H37.4434C36.9801 19.4705 32.5292 15.0195 26.9577 14.5561V13.5498C26.9594 13.4217 26.9355 13.2945 26.8872 13.1758C26.8389 13.0571 26.7673 12.9493 26.6766 12.8588C26.5859 12.7683 26.478 12.6969 26.3592 12.6488C26.2404 12.6008 26.1132 12.577 25.985 12.579ZM25.0423 16.4696V17.3806C25.0405 17.5075 25.064 17.6335 25.1113 17.7512C25.1586 17.869 25.2289 17.9762 25.318 18.0666C25.4071 18.1569 25.5133 18.2287 25.6304 18.2777C25.7474 18.3267 25.8731 18.3519 26 18.3519C26.1269 18.3519 26.2526 18.3267 26.3697 18.2777C26.4867 18.2287 26.5929 18.1569 26.682 18.0666C26.7711 17.9762 26.8414 17.869 26.8887 17.7512C26.936 17.6335 26.9595 17.5075 26.9577 17.3806V16.4696C31.4903 16.9175 35.0821 20.5094 35.53 25.0421H34.6191C34.4922 25.0403 34.3662 25.0637 34.2484 25.111C34.1306 25.1584 34.0234 25.2286 33.9331 25.3177C33.8427 25.4068 33.7709 25.513 33.7219 25.6301C33.673 25.7472 33.6477 25.8728 33.6477 25.9998C33.6477 26.1267 33.673 26.2523 33.7219 26.3694C33.7709 26.4865 33.8427 26.5927 33.9331 26.6818C34.0234 26.7709 34.1306 26.8411 34.2484 26.8885C34.3662 26.9358 34.4922 26.9592 34.6191 26.9574H35.53C35.0821 31.4901 31.4903 35.082 26.9577 35.5299V34.6189C26.9594 34.4908 26.9355 34.3636 26.8872 34.2449C26.8389 34.1262 26.7673 34.0184 26.6766 33.9279C26.5859 33.8374 26.478 33.766 26.3592 33.7179C26.2404 33.6699 26.1132 33.6462 25.985 33.6482C25.7314 33.6521 25.4896 33.7566 25.3129 33.9386C25.1362 34.1206 25.0389 34.3653 25.0423 34.6189V35.5299C20.5097 35.082 16.9179 31.4901 16.47 26.9574H17.381C17.5079 26.9592 17.6338 26.9358 17.7516 26.8885C17.8694 26.8411 17.9766 26.7709 18.0669 26.6818C18.1573 26.5927 18.2291 26.4865 18.2781 26.3694C18.327 26.2523 18.3523 26.1267 18.3523 25.9998C18.3523 25.8728 18.327 25.7472 18.2781 25.6301C18.2291 25.513 18.1573 25.4068 18.0669 25.3177C17.9766 25.2286 17.8694 25.1584 17.7516 25.111C17.6338 25.0637 17.5079 25.0403 17.381 25.0421H16.47C16.9179 20.5094 20.5097 16.9175 25.0423 16.4696Z" fill="white"/>
<circle cx="26" cy="25.9999" r="2.68421" fill="#737ADE"/>
</g>
<defs>
<filter id="filter0_d" x="5" y="6" width="42" height="42" filterUnits="userSpaceOnUse" color-interpolation-filters="sRGB">
<feFlood flood-opacity="0" result="BackgroundImageFix"/>
<feColorMatrix in="SourceAlpha" type="matrix" values="0 0 0 0 0 0 0 0 0 0 0 0 0 0 0 0 0 0 127 0"/>
<feOffset dy="1"/>
<feGaussianBlur stdDeviation="2"/>
<feColorMatrix type="matrix" values="0 0 0 0 0 0 0 0 0 0 0 0 0 0 0 0 0 0 0.15 0"/>
<feBlend mode="normal" in2="BackgroundImageFix" result="effect1_dropShadow"/>
<feBlend mode="normal" in="SourceGraphic" in2="effect1_dropShadow" result="shape"/>
</filter>
<linearGradient id="paint0_linear" x1="6.0675" y1="19.625" x2="41.6989" y2="49.4883" gradientUnits="userSpaceOnUse">
<stop stop-color="#4C54D2"/>
<stop offset="1" stop-color="#A3278F"/>
</linearGradient>
</defs>
</svg>